HIERARCHY
ROOT root
{
	OFFSET	0	13.1	24.9
	CHANNELS 6  Xposition Yposition Zposition Xrotation Yrotation Zrotation
	JOINT spine_1
	{
		OFFSET	0	9.99999	0
		CHANNELS 3  Xrotation Yrotation Zrotation
		JOINT spine_2
		{
			OFFSET	0	112	-10
			CHANNELS 3  Xrotation Yrotation Zrotation
			JOINT spine_3
			{
				OFFSET	0	206.5	19.3
				CHANNELS 3  Xrotation Yrotation Zrotation
				JOINT spine_4
				{
					OFFSET	0	110.4	14.6
					CHANNELS 3  Xrotation Yrotation Zrotation
					JOINT neck_1
					{
						OFFSET	0	71.8	-50.3
						CHANNELS 3  Xrotation Yrotation Zrotation
						JOINT neck_2
						{
							OFFSET	0	86.2	-25.8
							CHANNELS 3  Xrotation Yrotation Zrotation
							JOINT head_ee
							{
								OFFSET	0	179.8	-8.7
								CHANNELS 3  Xrotation Yrotation Zrotation
								End Site
								{
									OFFSET	1	0	0
								}
							}
						}
					}
					JOINT left_clavicle
					{
						OFFSET	-43.2	22.4	-70.8
						CHANNELS 3  Xrotation Yrotation Zrotation
						JOINT left_shoulder
						{
							OFFSET	-93.9	-5.79999	48.7
							CHANNELS 3  Xrotation Yrotation Zrotation
							JOINT left_elbow
							{
								OFFSET	-291.4	-30.8	15.2
								CHANNELS 3  Xrotation Yrotation Zrotation
								JOINT left_lowarm_twist
								{
									OFFSET	-110.7	-3.89999	13.6
									CHANNELS 3  Xrotation Yrotation Zrotation
									JOINT left_hand
									{
										OFFSET	-110.7	-3.89999	13.6
										CHANNELS 3  Xrotation Yrotation Zrotation
										JOINT left_ee
										{
											OFFSET	-80.8	-5.10001	12.1
											CHANNELS 3  Xrotation Yrotation Zrotation
											End Site
											{
												OFFSET	1	0	0
											}
										}
									}
								}
							}
						}
					}
					JOINT right_clavicle
					{
						OFFSET	43.2	22.4	-70.8
						CHANNELS 3  Xrotation Yrotation Zrotation
						JOINT right_shoulder
						{
							OFFSET	93.9	-5.79999	48.7
							CHANNELS 3  Xrotation Yrotation Zrotation
							JOINT right_elbow
							{
								OFFSET	291.4	-30.8	15.2
								CHANNELS 3  Xrotation Yrotation Zrotation
								JOINT right_lowarm_twist
								{
									OFFSET	110.7	-3.89999	13.6
									CHANNELS 3  Xrotation Yrotation Zrotation
									JOINT right_hand
									{
										OFFSET	110.7	-3.89999	13.6
										CHANNELS 3  Xrotation Yrotation Zrotation
										JOINT right_ee
										{
											OFFSET	80.8	-5.10001	12.1
											CHANNELS 3  Xrotation Yrotation Zrotation
											End Site
											{
												OFFSET	1	0	0
											}
										}
									}
								}
							}
						}
					}
				}
			}
		}
	}
	JOINT left_hip
	{
		OFFSET	-82.8	-127.5	0.300001
		CHANNELS 3  Xrotation Yrotation Zrotation
		JOINT left_knee
		{
			OFFSET	-28.2	-396.7	2.2
			CHANNELS 3  Xrotation Yrotation Zrotation
			JOINT left_ankle
			{
				OFFSET	-11.7	-411.3	35.4
				CHANNELS 3  Xrotation Yrotation Zrotation
				JOINT left_toes
				{
					OFFSET	0	-60	-88.6
					CHANNELS 3  Xrotation Yrotation Zrotation
					JOINT left_foot_ee
					{
						OFFSET	-22.5	-16.5	-42.2
						CHANNELS 3  Xrotation Yrotation Zrotation
						End Site
						{
							OFFSET	1	0	0
						}
					}
				}
			}
		}
	}
	JOINT right_hip
	{
		OFFSET	82.8	-127.5	0.300001
		CHANNELS 3  Xrotation Yrotation Zrotation
		JOINT right_knee
		{
			OFFSET	28.2	-396.7	2.2
			CHANNELS 3  Xrotation Yrotation Zrotation
			JOINT right_ankle
			{
				OFFSET	11.7	-411.3	35.4
				CHANNELS 3  Xrotation Yrotation Zrotation
				JOINT right_toes
				{
					OFFSET	0	-60	-88.6
					CHANNELS 3  Xrotation Yrotation Zrotation
					JOINT right_foot_ee
					{
						OFFSET	22.5	-16.5	-42.2
						CHANNELS 3  Xrotation Yrotation Zrotation
						End Site
						{
							OFFSET	1	0	0
						}
					}
				}
			}
		}
	}
}
MOTION
Frames: 15
Frame Time: 0.02
1233.37548844 743.07 -1745.84430172 -41.6374643587 54.3065874448 45.5815450033 11.4861 -0.385446 -2.59195 11.4899 -0.21979 -2.61121 11.4899 -0.190691 -2.61349 11.4809 -0.600916 -2.55065 -28.3939 -14.6401 -0.0629323 -30.5161 -27.9872 -8.99475 -0.0 0.0 -0.0 10.6123 -4.90671 21.1327 -38.816 -7.27678 61.9472 0.834109 -22.4499 0.165538 -57.7854 -5.00869 5.02691 -6.51968 26.6729 -26.7603 -0.0 0.0 -0.0 6.46318 -19.08 -11.9959 82.9613 -56.9626 5.14466 0.204864 5.7949 -0.0103688 84.0645 4.31486 8.82209 -5.66914 -11.6394 33.1809 0.0 0.0 0.0 59.1605 -31.0544 -3.57032 -65.673 -2.84269 9.11946 -5.12116 -6.68156 0.785313 23.5564 -0.0 -0.0 -0.0 0.0 -0.0 40.237 -6.56228 -13.4613 -28.9244 -0.0837594 -4.39114 42.5244 -26.5631 5.46039 10.0418 -0.0 -0.0 0.0 0.0 0.0 
1231.67173192 742.359 -1759.55605498 -44.6307575819 55.2705456816 49.3585825084 11.7899 -0.552075 -2.5575 11.7934 -0.388271 -2.58742 11.8009 -0.373669 -2.58957 11.7924 -0.777826 -2.49815 -29.1286 -16.2793 -0.35339 -31.8913 -30.9418 -10.6975 -0.0 0.0 -0.0 10.8019 -4.14034 21.5184 -41.4357 -7.63092 61.3978 0.716802 -19.5491 0.123487 -52.1498 -4.32576 4.79059 -5.99362 25.2587 -24.6346 -0.0 0.0 -0.0 6.51017 -17.4782 -12.1689 82.9447 -56.9144 3.55758 0.185968 5.26355 -0.00854811 85.5137 4.48814 8.88954 -6.88147 -23.1463 32.4631 0.0 0.0 0.0 65.2132 -29.4467 -2.52971 -67.9038 -3.11111 9.33531 -7.71977 -8.96155 1.20351 20.9917 -0.0 -0.0 -0.0 0.0 -0.0 40.0321 -4.81466 -15.0584 -27.8965 -0.118869 -4.23731 40.9645 -26.4375 5.30968 18.0238 -0.0 -0.0 0.0 0.0 0.0 
1220.63927909 751.751 -1761.11031818 -47.6216719535 55.480937162 52.7672232651 11.3518 -0.705472 -2.85872 11.3562 -0.522214 -2.89777 11.3706 -0.484262 -2.90435 11.36 -0.936695 -2.79156 -28.8905 -17.0263 0.738714 -32.0044 -32.7459 -10.2248 -0.0 0.0 -0.0 11.3972 -3.65323 22.7858 -35.4129 -8.74274 60.5599 0.496113 -13.8076 0.06007 -47.153 -3.74196 4.52578 -4.90489 23.5679 -19.1462 -0.0 0.0 -0.0 6.45382 -15.464 -12.1883 85.9841 -56.0737 5.21187 0.18647 5.27766 -0.00859417 85.3234 4.46529 8.88093 -7.76228 -30.7459 30.6877 0.0 0.0 0.0 69.7214 -29.2279 -0.745907 -67.4475 -3.05551 9.29199 -11.6543 -6.0379 1.80043 20.1277 -0.0 -0.0 -0.0 0.0 -0.0 40.3275 -3.3487 -16.0866 -24.6004 -0.212737 -3.74024 39.6874 -25.5349 5.15536 23.732 -0.0 -0.0 0.0 0.0 0.0 
1201.70944777 745.396 -1753.25375784 -51.570159511 57.0285474708 57.6265067815 11.0783 -0.538599 -3.09721 11.0835 -0.340523 -3.12517 11.0885 -0.283965 -3.13081 11.0756 -0.774624 -3.04681 -26.066 -17.4644 2.82734 -29.1032 -34.6175 -7.73299 -0.0 0.0 -0.0 11.069 -1.99193 21.9998 -36.3452 -8.8136 60.7203 0.26917 -7.59514 0.0178668 -41.9929 -3.16556 4.20009 -3.87859 17.7887 -16.5398 -0.0 0.0 -0.0 6.45952 -13.3462 -12.2964 89.3538 -55.3546 5.41981 0.186105 5.2674 -0.00856072 85.4871 4.48494 8.88834 -7.44697 -30.4368 29.0097 0.0 0.0 0.0 77.9066 -30.542 5.27792 -64.4821 -2.70291 9.00004 -21.8481 1.87851 3.30924 19.1246 -0.0 -0.0 -0.0 0.0 -0.0 39.0321 -2.14952 -17.3527 -22.1014 -0.264757 -3.36031 40.6055 -25.6323 5.24702 28.413 -0.0 -0.0 0.0 0.0 0.0 
1178.53326727 737.494 -1754.53330127 -55.5680807445 58.5246943797 62.3687373235 10.8868 -0.479702 -3.18406 10.8924 -0.276227 -3.20809 10.8938 -0.207163 -3.21329 10.8801 -0.71179 -3.14038 -22.1998 -18.004 4.209 -24.8945 -36.5869 -5.47136 -0.0 0.0 -0.0 10.7985 0.414295 21.289 -37.735 -7.93915 61.2545 0.184605 -5.22518 0.00842354 -38.0463 -2.74583 3.91684 -2.61766 13.5409 -10.9002 -0.0 0.0 -0.0 6.25945 -13.748 -11.9415 90.493 -54.7523 5.21781 0.188383 5.33151 -0.00877113 85.4152 4.4763 8.88509 -7.31572 -30.1924 28.4351 0.0 0.0 0.0 78.1527 -32.4303 7.07163 -61.548 -2.36944 8.69374 -23.6481 7.40154 3.5579 17.2025 -0.0 -0.0 -0.0 0.0 -0.0 37.7045 -1.40132 -18.1358 -18.9771 -0.306408 -2.88278 42.2786 -25.7892 5.40915 31.9214 -0.0 -0.0 0.0 0.0 0.0 
1108.64353002 732.026 -1761.93590693 -66.3308174401 58.8350165497 74.6355044742 11.8157 -0.40727 -3.50162 11.8225 -0.183768 -3.52041 11.8151 -0.164573 -3.52136 11.7985 -0.718308 -3.45133 -15.0872 -16.7034 -1.35444 -16.0477 -31.17 -7.22838 -0.0 0.0 -0.0 9.5688 1.22817 18.7117 -37.628 3.8752 65.487 0.207133 -5.85863 0.0105992 -30.2034 -1.97455 3.27206 1.39237 9.65865 13.0619 -0.0 0.0 -0.0 5.37131 -15.9865 -10.4055 90.0924 -55.9267 0.287526 0.296615 8.3591 -0.0216757 85.5018 4.48671 8.88901 -7.64048 -30.1527 30.5432 0.0 0.0 0.0 74.293 -37.0524 7.37807 -41.0342 -0.533869 6.14244 -22.3035 22.8152 3.45954 7.58401 -0.0 -0.0 -0.0 0.0 -0.0 34.0614 1.25224 -19.5039 -6.75707 -0.218655 -1.01336 43.2572 -25.0327 5.47068 40.3808 -0.0 -0.0 0.0 0.0 0.0 
1092.13046125 735.632 -1762.5790187 -68.4307409817 57.7020144756 76.5906439808 11.9816 -0.433238 -3.21978 11.9873 -0.227588 -3.24079 11.9841 -0.219536 -3.24135 11.9701 -0.728433 -3.16613 -14.8753 -16.2444 -0.566236 -15.7859 -30.733 -6.25034 -0.0 0.0 -0.0 9.27529 1.32436 18.1129 -37.0725 8.50464 65.2804 0.180735 -5.11623 0.00807473 -27.919 -1.76728 3.06514 2.07924 10.4615 17.9344 -0.0 0.0 -0.0 4.88624 -16.531 -9.61761 89.1071 -56.8398 -1.95331 0.261678 7.38609 -0.0168901 85.5873 4.49699 8.89285 -7.80466 -30.2045 31.5545 0.0 0.0 0.0 73.2262 -38.2509 6.57181 -35.1657 -0.188192 5.30977 -9.79161 26.5846 1.53362 0.532822 -0.0 -0.0 -0.0 0.0 -0.0 32.7944 1.49211 -20.1531 -4.0658 -0.145918 -0.606785 43.3076 -23.5629 5.42545 40.2075 -0.0 -0.0 0.0 0.0 0.0 
1085.20273021 735.632 -1755.66392954 -70.522012177 58.1922667288 79.0579193292 11.9816 -0.433238 -3.21978 11.9873 -0.227588 -3.24079 11.9841 -0.219536 -3.24135 11.9701 -0.728433 -3.16613 -14.8753 -16.2444 -0.566236 -15.7859 -30.733 -6.25034 -0.0 0.0 -0.0 9.27529 1.32436 18.1129 -37.0725 8.50464 65.2804 0.180735 -5.11623 0.00807473 -27.919 -1.76728 3.06514 2.07924 10.4615 17.9344 -0.0 0.0 -0.0 4.88624 -16.531 -9.61761 89.1071 -56.8398 -1.95331 0.261678 7.38609 -0.0168901 85.5873 4.49699 8.89285 -7.80466 -30.2045 31.5545 0.0 0.0 0.0 73.2262 -38.2509 6.57181 -35.1657 -0.188192 5.30977 -9.79161 26.5846 1.53362 0.532822 -0.0 -0.0 -0.0 0.0 -0.0 32.7944 1.49211 -20.1531 -4.0658 -0.145918 -0.606785 43.3076 -23.5629 5.42545 40.2075 -0.0 -0.0 0.0 0.0 0.0 
1069.66119214 735.439 -1764.17240809 -69.6550160666 57.7902286765 78.5725245351 12.0847 -0.490619 -3.1969 12.0903 -0.286306 -3.22161 12.0903 -0.284373 -3.22178 12.0767 -0.789373 -3.13658 -16.9201 -16.8917 -0.396197 -18.2093 -32.2054 -7.04524 -0.0 0.0 -0.0 9.2049 1.2677 17.9732 -34.8848 12.0007 61.1982 0.17672 -5.00316 0.0077206 -24.6519 -1.48561 2.75535 2.87403 11.1552 23.6371 -0.0 0.0 -0.0 4.99097 -17.8748 -9.75995 88.6172 -56.5414 -3.54534 0.301436 8.49297 -0.022382 85.5862 4.49685 8.8928 -8.39465 -30.5921 35.0643 0.0 0.0 0.0 70.3856 -39.0251 5.52797 -31.1149 -0.000248021 4.71679 4.77421 29.6261 -0.741166 -3.05118 0.0 0.0 -0.0 0.0 -0.0 32.4576 1.246 -20.1433 -4.60307 -0.161965 -0.687677 42.7642 -23.0282 5.36062 40.258 -0.0 -0.0 0.0 0.0 0.0 
1065.69037832 735.439 -1759.95894617 -70.8461700784 58.0582526719 79.9782465936 12.0847 -0.490619 -3.1969 12.0903 -0.286306 -3.22161 12.0903 -0.284373 -3.22178 12.0767 -0.789373 -3.13658 -16.9201 -16.8917 -0.396197 -18.2093 -32.2054 -7.04524 -0.0 0.0 -0.0 9.2049 1.2677 17.9732 -34.8848 12.0007 61.1982 0.17672 -5.00316 0.0077206 -24.6519 -1.48561 2.75535 2.87403 11.1552 23.6371 -0.0 0.0 -0.0 4.99097 -17.8748 -9.75995 88.6172 -56.5414 -3.54534 0.301436 8.49297 -0.022382 85.5862 4.49685 8.8928 -8.39465 -30.5921 35.0643 0.0 0.0 0.0 70.3856 -39.0251 5.52797 -31.1149 -0.000248021 4.71679 4.77421 29.6261 -0.741166 -3.05118 0.0 0.0 -0.0 0.0 -0.0 32.4576 1.246 -20.1433 -4.60307 -0.161965 -0.687677 42.7642 -23.0282 5.36062 40.258 -0.0 -0.0 0.0 0.0 0.0 
1060.36906274 735.439 -1754.12406704 -72.5044247422 58.3984232026 81.9287220263 12.0847 -0.490619 -3.1969 12.0903 -0.286306 -3.22161 12.0903 -0.284373 -3.22178 12.0767 -0.789373 -3.13658 -16.9201 -16.8917 -0.396197 -18.2093 -32.2054 -7.04524 -0.0 0.0 -0.0 9.2049 1.2677 17.9732 -34.8848 12.0007 61.1982 0.17672 -5.00316 0.0077206 -24.6519 -1.48561 2.75535 2.87403 11.1552 23.6371 -0.0 0.0 -0.0 4.99097 -17.8748 -9.75995 88.6172 -56.5414 -3.54534 0.301436 8.49297 -0.022382 85.5862 4.49685 8.8928 -8.39465 -30.5921 35.0643 0.0 0.0 0.0 70.3856 -39.0251 5.52797 -31.1149 -0.000248021 4.71679 4.77421 29.6261 -0.741166 -3.05118 0.0 0.0 -0.0 0.0 -0.0 32.4576 1.246 -20.1433 -4.60307 -0.161965 -0.687677 42.7642 -23.0282 5.36062 40.258 -0.0 -0.0 0.0 0.0 0.0 
1052.0481165 736.174 -1761.16406293 -70.0035105908 58.9396147619 78.8665770591 11.9072 -0.54719 -3.25829 11.9131 -0.338862 -3.28647 11.916 -0.326978 -3.28767 11.9019 -0.841836 -3.19494 -18.4261 -17.5875 -0.252712 -20.0865 -33.6866 -7.78811 -0.0 0.0 -0.0 9.67334 3.05311 18.8213 -33.3277 15.629 59.693 0.165095 -4.67554 0.00673986 -21.2864 -1.21449 2.42011 3.53553 13.7981 29.1823 -0.0 0.0 -0.0 5.15609 -18.8747 -9.99127 88.7386 -56.0088 -3.2713 0.320992 9.03516 -0.0253618 85.2509 4.45659 8.87764 -8.75746 -30.5724 37.6404 0.0 0.0 0.0 68.3104 -39.5373 4.67888 -24.3394 0.218944 3.70067 17.8639 28.4727 -2.64009 -7.68806 0.0 0.0 -0.0 0.0 -0.0 31.1634 2.02216 -20.2276 -5.42546 -0.185055 -0.811774 42.6191 -22.3547 5.32748 40.1923 -0.0 -0.0 0.0 0.0 0.0 
1048.41679467 736.174 -1757.04753765 -71.1566829256 59.1833071786 80.2110212843 11.9072 -0.54719 -3.25829 11.9131 -0.338862 -3.28647 11.916 -0.326978 -3.28767 11.9019 -0.841836 -3.19494 -18.4261 -17.5875 -0.252712 -20.0865 -33.6866 -7.78811 -0.0 0.0 -0.0 9.67334 3.05311 18.8213 -33.3277 15.629 59.693 0.165095 -4.67554 0.00673986 -21.2864 -1.21449 2.42011 3.53553 13.7981 29.1823 -0.0 0.0 -0.0 5.15609 -18.8747 -9.99127 88.7386 -56.0088 -3.2713 0.320992 9.03516 -0.0253618 85.2509 4.45659 8.87764 -8.75746 -30.5724 37.6404 0.0 0.0 0.0 68.3104 -39.5373 4.67888 -24.3394 0.218944 3.70067 17.8639 28.4727 -2.64009 -7.68806 0.0 0.0 -0.0 0.0 -0.0 31.1634 2.02216 -20.2276 -5.42546 -0.185055 -0.811774 42.6191 -22.3547 5.32748 40.1923 -0.0 -0.0 0.0 0.0 0.0 
1043.06981251 736.174 -1750.78714029 -72.9215917719 59.5223207464 82.2624056307 11.9072 -0.54719 -3.25829 11.9131 -0.338862 -3.28647 11.916 -0.326978 -3.28767 11.9019 -0.841836 -3.19494 -18.4261 -17.5875 -0.252712 -20.0865 -33.6866 -7.78811 -0.0 0.0 -0.0 9.67334 3.05311 18.8213 -33.3277 15.629 59.693 0.165095 -4.67554 0.00673986 -21.2864 -1.21449 2.42011 3.53553 13.7981 29.1823 -0.0 0.0 -0.0 5.15609 -18.8747 -9.99127 88.7386 -56.0088 -3.2713 0.320992 9.03516 -0.0253618 85.2509 4.45659 8.87764 -8.75746 -30.5724 37.6404 0.0 0.0 0.0 68.3104 -39.5373 4.67888 -24.3394 0.218944 3.70067 17.8639 28.4727 -2.64009 -7.68806 0.0 0.0 -0.0 0.0 -0.0 31.1634 2.02216 -20.2276 -5.42546 -0.185055 -0.811774 42.6191 -22.3547 5.32748 40.1923 -0.0 -0.0 0.0 0.0 0.0 
984.95521158 728.501 -1781.54861799 -74.2960669706 60.966231267 86.255575246 12.2046 -1.18394 -3.75821 12.212 -0.942573 -3.8258 12.2525 -0.952682 -3.82329 12.2354 -1.54416 -3.62527 -24.1251 -17.4758 1.66086 -26.7866 -34.3153 -8.09048 -0.0 0.0 -0.0 10.6045 3.80312 20.6394 -27.8236 31.2104 54.9723 0.194747 -5.51053 0.0093723 -16.0738 -0.834816 1.87137 4.18224 30.5273 36.9098 -0.0 0.0 -0.0 4.87605 -20.6007 -9.52324 92.3451 -53.7788 0.0287937 0.175588 4.97127 -0.00762227 85.8886 4.53324 8.90628 -8.60287 -30.6104 36.4914 0.0 0.0 0.0 58.8498 -41.0602 1.5052 -4.97711 0.172688 0.744079 37.9198 21.4025 -4.86428 -8.95653 0.0 0.0 -0.0 0.0 -0.0 24.2548 -4.80437 -22.2076 -10.4214 -0.286833 -1.57142 41.8994 -8.07129 5.02669 40.1763 -0.0 -0.0 0.0 0.0 0.0 
